<svg width="52" height="52" viewBox="0 0 52 52" fill="none" xmlns="http://www.w3.org/2000/svg">
<path d="M50.8837 1.11625C50.5969 0.830804 50.2346 0.633173 49.8394 0.546592C49.4441 0.460012 49.0323 0.488081 48.6525 0.627499L1.9025 17.6275C1.49932 17.7804 1.15221 18.0524 0.90726 18.4073C0.662314 18.7622 0.531128 19.1832 0.531128 19.6144C0.531128 20.0456 0.662314 20.4666 0.90726 20.8215C1.15221 21.1764 1.49932 21.4483 1.9025 21.6012L22.3025 29.7612L30.4625 50.1613C30.6158 50.5467 30.8786 50.8789 31.2184 51.1168C31.5583 51.3547 31.9603 51.4879 32.375 51.5C32.8044 51.4912 33.2211 51.3525 33.5701 51.1021C33.9191 50.8517 34.184 50.5015 34.33 50.0975L51.33 3.3475C51.4748 2.97154 51.5097 2.56216 51.4307 2.16711C51.3517 1.77206 51.162 1.40761 50.8837 1.11625ZM32.375 43.425L26.4462 28.55L36.625 18.3712L33.6287 15.375L23.365 25.6387L8.575 19.625L45.8262 6.17375L32.375 43.425Z" fill="black"/>
</svg>
